<?xml version="1.0" encoding="utf-8"?>
<!-- Generator: Adobe Illustrator 27.5.0, SVG Export Plug-In . SVG Version: 6.00 Build 0)  -->
<svg version="1.1" xmlns="http://www.w3.org/2000/svg" xmlns:xlink="http://www.w3.org/1999/xlink" x="0px" y="0px"
	 viewBox="0 0 3710 3710" style="enable-background:new 0 0 3710 3710;" xml:space="preserve">
<g id="Background">
	<g>
		<g>
			<rect style="fill:#FFFFFF;" width="3710" height="3710"/>
		</g>
	</g>
</g>
<g id="Illustration">
	<g>
		<path style="fill:#F4F7FA;" d="M1897.341,497.855c-304.18,120.947-333.315,430.119-607.196,456.652
			c-238.642,23.119-329.349-200.681-496.798-160.581c-255.071,61.085-415.44,669.203-312.997,1169.229
			c105.779,516.311,550.219,1202.68,1286.518,1249.52c826.653,52.589,1452.142-737.139,1490.332-1430.173
			c4.13-74.949,28.521-702.923-451.575-1073.885C2781.637,690.082,2308.546,334.353,1897.341,497.855z"/>
		<g>
			<g>
				<linearGradient id="SVGID_1_" gradientUnits="userSpaceOnUse" x1="2316.731" y1="3298.885" x2="2450.1677" y2="954.1957">
					<stop  offset="0" style="stop-color:#FFC444"/>
					<stop  offset="0.9964" style="stop-color:#F36F56"/>
				</linearGradient>
				<polygon style="fill:url(#SVGID_1_);" points="2419.614,907.797 2495.825,765.974 2540.883,920.543 2644.915,797.664 
					2656.852,958.223 2784.158,859.659 2762.452,1019.192 2907.469,949.249 2853.068,1100.783 3009.458,1062.52 2924.741,1199.432 
					3085.669,1194.521 2974.337,1310.827 3132.77,1339.481 2999.689,1430.099 3148.702,1491.067 2999.689,1552.036 
					3132.77,1642.653 2974.337,1671.308 3085.669,1787.614 2924.741,1782.702 3009.458,1919.614 2853.068,1881.351 
					2907.469,2032.885 2762.452,1962.943 2784.158,2122.476 2656.852,2023.911 2644.915,2184.471 2540.883,2061.592 
					2495.825,2216.161 2419.614,2074.337 2343.404,2216.161 2298.345,2061.592 2194.314,2184.471 2182.377,2023.911 
					2055.07,2122.476 2076.777,1962.943 1931.759,2032.885 1986.16,1881.351 1829.77,1919.614 1914.487,1782.702 1753.559,1787.614 
					1864.891,1671.308 1706.459,1642.653 1839.539,1552.036 1690.526,1491.067 1839.539,1430.099 1706.459,1339.481 
					1864.891,1310.827 1753.559,1194.521 1914.487,1199.432 1829.77,1062.52 1986.16,1100.783 1931.759,949.249 2076.777,1019.192 
					2055.07,859.659 2182.377,958.223 2194.314,797.664 2298.345,920.543 2343.404,765.974 				"/>
				
					<linearGradient id="SVGID_00000069389833626014414050000003005543454810674866_" gradientUnits="userSpaceOnUse" x1="2342.8645" y1="3153.613" x2="2466.1804" y2="986.7595" gradientTransform="matrix(1 0.0056 -0.0056 1 -10.0259 -5.4965)">
					<stop  offset="0" style="stop-color:#FFC444"/>
					<stop  offset="0.9964" style="stop-color:#F36F56"/>
				</linearGradient>
				<polygon style="fill:url(#SVGID_00000069389833626014414050000003005543454810674866_);" points="2947.647,1601.984 
					3090.531,1559.961 2959.17,1489.776 3090.194,1418.964 2947.11,1377.625 3060.549,1281.118 2911.998,1270.431 
					3002.893,1152.448 2855.365,1172.881 2919.744,1038.578 2779.687,1089.236 2814.737,944.483 2688.274,1023.154 
					2692.461,874.276 2585.118,977.522 2558.261,831.027 2474.729,954.333 2418,816.624 2361.931,954.603 2277.811,831.698 
					2251.656,978.319 2143.82,875.589 2148.719,1024.445 2021.882,946.38 2057.622,1090.964 1917.326,1040.976 1982.347,1174.969 
					1834.723,1155.243 1926.182,1272.79 1777.683,1284.187 1891.583,1380.15 1748.697,1422.173 1880.06,1492.358 1749.035,1563.17 
					1892.118,1604.51 1778.679,1701.016 1927.232,1711.703 1836.337,1829.686 1983.865,1809.254 1919.486,1943.557 
					2059.541,1892.899 2024.492,2037.652 2150.954,1958.98 2146.769,2107.858 2254.11,2004.613 2280.968,2151.108 
					2364.499,2027.801 2421.228,2165.51 2477.297,2027.531 2561.417,2150.437 2587.574,2003.815 2695.409,2106.545 2690.51,1957.69 
					2817.348,2035.755 2781.606,1891.171 2921.903,1941.159 2856.882,1807.165 3004.507,1826.891 2913.046,1709.345 
					3061.547,1697.947 				"/>
			</g>
			<g>
				
					<linearGradient id="SVGID_00000000934799177667375500000010310906901598197396_" gradientUnits="userSpaceOnUse" x1="2807.9724" y1="537.8069" x2="1969.1469" y2="2596.7471">
					<stop  offset="0" style="stop-color:#FCB148"/>
					<stop  offset="0.0521" style="stop-color:#FDBA46"/>
					<stop  offset="0.1424" style="stop-color:#FFC244"/>
					<stop  offset="0.3183" style="stop-color:#FFC444"/>
					<stop  offset="0.4849" style="stop-color:#FDB946"/>
					<stop  offset="0.7754" style="stop-color:#F99C4D"/>
					<stop  offset="0.8658" style="stop-color:#F8924F"/>
					<stop  offset="1" style="stop-color:#F8924F"/>
				</linearGradient>
				<path style="fill:url(#SVGID_00000000934799177667375500000010310906901598197396_);" d="M3000.99,1491.067
					c0,297.439-223.414,542.741-511.576,577.213c-22.874,2.764-46.162,4.162-69.8,4.162c-321.076,0-581.376-260.298-581.376-581.375
					c0-146.241,53.979-279.87,143.129-382.013c106.591-122.159,263.411-199.362,438.247-199.362
					C2740.691,909.693,3000.99,1169.991,3000.99,1491.067z"/>
				
					<linearGradient id="SVGID_00000101072403573811562450000013240973599517338275_" gradientUnits="userSpaceOnUse" x1="1838.2386" y1="1590.7483" x2="2702.2163" y2="1590.7483">
					<stop  offset="0" style="stop-color:#FCB148"/>
					<stop  offset="0.0521" style="stop-color:#FDBA46"/>
					<stop  offset="0.1424" style="stop-color:#FFC244"/>
					<stop  offset="0.3183" style="stop-color:#FFC444"/>
					<stop  offset="0.4849" style="stop-color:#FDB946"/>
					<stop  offset="0.7754" style="stop-color:#F99C4D"/>
					<stop  offset="0.8658" style="stop-color:#F8924F"/>
					<stop  offset="1" style="stop-color:#F8924F"/>
				</linearGradient>
				<path style="opacity:0.2;fill:url(#SVGID_00000101072403573811562450000013240973599517338275_);" d="M2686.393,1833.906
					c-29.419,81.969-98.552,162.54-196.979,234.374c-22.874,2.764-46.162,4.162-69.8,4.162
					c-321.076,0-581.376-260.298-581.376-581.375c0-146.241,53.979-279.87,143.129-382.013
					c4.606,42.319,26.306,89.467,78.855,137.917c53.756,49.467,139.824,100.332,273.008,148.624
					C2651.065,1510.892,2743.392,1674.957,2686.393,1833.906z"/>
				<circle style="opacity:0.3;fill:#FFFFFF;" cx="2419.614" cy="1491.067" r="434.39"/>
			</g>
		</g>
		<g>
			<defs>
				
					<rect id="SVGID_00000166639934599197871570000005119631214780797609_" x="410.589" y="1175.541" width="1266.232" height="1307.862"/>
			</defs>
			<clipPath id="SVGID_00000023993089084227605270000007373769908455583618_">
				<use xlink:href="#SVGID_00000166639934599197871570000005119631214780797609_"  style="overflow:visible;"/>
			</clipPath>
			<g style="clip-path:url(#SVGID_00000023993089084227605270000007373769908455583618_);">
				<g>
					<defs>
						<path id="SVGID_00000134251078085417672230000012721026854837059999_" d="M1123.09,2950.62l257.721-22.183
							c0,0,37.135-136.381-34.054-224.246c-145.246-179.271,21.902-293.97,84.724-352.484
							c94.74-88.244,139.744-207.325-13.903-244.256s-23.476-281.329,150.068-401.79c169.825-117.88,58.275-487.783-332.717-266.397
							c-233.499,132.212-173.244,386.656-173.362,522.382s-199.521,164.118-116.783,322.789
							c70.673,135.534,190.785,228.458,114.172,332.413S982.885,2829.922,1123.09,2950.62z"/>
					</defs>
					<clipPath id="SVGID_00000158018398480807120610000011980132709750081409_">
						<use xlink:href="#SVGID_00000134251078085417672230000012721026854837059999_"  style="overflow:visible;"/>
					</clipPath>
					
						<linearGradient id="SVGID_00000181780396135156663200000004485515481146304134_" gradientUnits="userSpaceOnUse" x1="2943.6995" y1="1273.545" x2="2428.7288" y2="2737.1475" gradientTransform="matrix(0.9963 -0.0858 0.0858 0.9963 -1592.0604 395.0986)">
						<stop  offset="0.0036" style="stop-color:#E38DDD"/>
						<stop  offset="1" style="stop-color:#9571F6"/>
					</linearGradient>
					
						<path style="clip-path:url(#SVGID_00000158018398480807120610000011980132709750081409_);fill:url(#SVGID_00000181780396135156663200000004485515481146304134_);" d="
						M1123.09,2950.62l257.721-22.183c0,0,37.135-136.381-34.054-224.246c-145.246-179.271,21.902-293.97,84.724-352.484
						c94.74-88.244,130.663-194.815,2.769-250.932c-144.706-63.494-40.148-274.652,133.396-395.113
						c169.825-117.88,58.275-487.783-332.717-266.397c-233.499,132.212-173.244,386.656-173.362,522.382
						s-199.521,164.118-116.783,322.789c70.673,135.534,190.785,228.458,114.172,332.413S982.885,2829.922,1123.09,2950.62z"/>
					<g style="opacity:0.5;clip-path:url(#SVGID_00000158018398480807120610000011980132709750081409_);">
						<g>
							<path style="fill:#FFFFFF;" d="M1234.181,2965.624c-0.896-3.273-89.408-331.275-79.119-682.938
								c6.053-206.873,44.596-381.42,114.559-518.797c87.706-172.208,225.173-286.104,408.589-338.527l2.932,10.251
								c-408.863,116.86-505.958,525.198-515.417,847.171c-10.282,350.103,77.85,676.768,78.741,680.025L1234.181,2965.624z"/>
						</g>
						<g>
							<path style="fill:#FFFFFF;" d="M1235.986,1838.869c-38.165-179.308,8.602-442.025,9.079-444.658l10.494,1.9
								c-0.473,2.614-46.868,263.301-9.142,440.541L1235.986,1838.869z"/>
						</g>
						<g>
							<path style="fill:#FFFFFF;" d="M1301.432,1727.707l-6.393-8.53c176.42-132.193,355.822-91.234,357.628-90.819l-2.482,10.37
								C1648.443,1638.289,1473.692,1598.631,1301.432,1727.707z"/>
						</g>
						<g>
							<path style="fill:#FFFFFF;" d="M1160.916,2511.132c39.351-265.797,389.329-361.854,392.767-362.148l0.914,10.621
								l-0.457-5.311l0.888,5.254c-3.415,0.695-345.345,95-383.563,353.146L1160.916,2511.132z"/>
						</g>
						<g>
							<path style="fill:#FFFFFF;" d="M1155.365,2404.504c-47.454-158.493-232.823-254.854-234.689-255.809l4.854-9.493
								c1.907,0.975,191.305,99.44,240.048,262.244L1155.365,2404.504z"/>
						</g>
						<g>
							<path style="fill:#FFFFFF;" d="M1221.148,2911.805c-0.783-104.874,134.219-195.715,139.966-199.532l5.899,8.884
								c-1.359,0.901-135.942,91.474-135.202,190.57L1221.148,2911.805z"/>
						</g>
						<g>
							<path style="fill:#FFFFFF;" d="M1204.762,2835.257c-19.228-73.767-142.616-149.289-183.164-174.107
								c-8.833-5.407-11.69-7.175-12.968-8.385l7.247-7.817c0.925,0.769,5.96,3.849,11.287,7.109
								c41.453,25.372,167.604,102.583,187.916,180.512L1204.762,2835.257z"/>
						</g>
					</g>
				</g>
				<g>
					<g>
						<g>
							<g>
								
									<linearGradient id="SVGID_00000147182262461637257490000012563471305243780790_" gradientUnits="userSpaceOnUse" x1="2777.2407" y1="2537.4854" x2="1868.767" y2="966.5852" gradientTransform="matrix(0.9978 -0.0656 0.0656 0.9978 -1582.9064 94.9248)">
									<stop  offset="0" style="stop-color:#FF9085"/>
									<stop  offset="1" style="stop-color:#FB6FBB"/>
								</linearGradient>
								<path style="fill:url(#SVGID_00000147182262461637257490000012563471305243780790_);" d="M1176.29,2745.38
									c-16.538,30.31-30.729,64.918-16.081,102.399c6.905,17.669,20.05,31.231,52.181,51.082
									c60.322,37.268,157.939,97.577,233.291,55.051c6.974-3.936,35.448-14.562,43.523-43.242
									c14.66-52.065,31.719-148.74-28.801-186.774c-84.679-53.216-39.793-221.88-26.288-314.59
									c36.643-251.545-238.127-246.576-216.876-573.585c5.652-86.974,45.513-250.95-23.244-325.054
									c-78.333-84.425-144.421-11.03-193.783-80.564c-77.15-108.681-210.942-154.663-299.145-53.865
									c-87.053,99.483-3.418,314.454,227.622,498.033c150.831,150.476,150.57,192.531,131.247,293.712
									c-13.534,70.872-93.964,252.516-1.878,333.238S1218.976,2667.146,1176.29,2745.38z"/>
								<g>
									<defs>
										<path id="SVGID_00000065781784433180552180000014312929902921411975_" d="M1230.598,2996.542l241.572-45.523
											c0,0,72.912-173.908-11.767-227.124c-84.679-53.216-39.793-221.88-26.288-314.589
											c36.643-251.546-238.127-246.576-216.876-573.585c5.652-86.974,45.513-250.95-23.244-325.054
											c-78.333-84.425-144.422-11.03-193.783-80.565c-77.15-108.68-210.942-154.663-299.145-53.865
											c-87.052,99.483-3.418,314.454,227.622,498.033c150.831,150.476,150.57,192.531,131.248,293.712
											c-13.534,70.872-93.964,252.516-1.878,333.237s160.917,165.926,118.231,244.159
											C1111.337,2864.422,1230.598,2996.542,1230.598,2996.542z"/>
									</defs>
									<clipPath id="SVGID_00000036234577419303720810000015077663628901706654_">
										<use xlink:href="#SVGID_00000065781784433180552180000014312929902921411975_"  style="overflow:visible;"/>
									</clipPath>
									<g style="opacity:0.5;clip-path:url(#SVGID_00000036234577419303720810000015077663628901706654_);">
										<g>
											<path style="fill:#FCFDFE;" d="M1334.307,2964.695c-1.688-28.939-3.744-58.094-6.114-86.653
												c-17.564-211.475-54.231-413.649-108.984-600.904c-46.377-158.602-106.347-308.736-178.24-446.234
												c-57.793-110.526-123.575-213.528-195.514-306.14c-50.536-65.061-103.565-124.351-157.615-176.229
												c-9.316-8.942-19.419-17.632-29.19-26.038c-13.258-11.404-26.969-23.196-39.176-35.983l6.882-6.572
												c11.886,12.448,25.416,24.087,38.499,35.343c9.867,8.487,20.07,17.264,29.575,26.384
												c54.38,52.195,107.721,111.834,158.541,177.256c72.285,93.059,138.374,196.539,196.43,307.57
												c72.183,138.051,132.386,288.77,178.938,447.97c54.931,187.868,91.718,390.677,109.334,602.789
												c2.377,28.635,4.442,57.869,6.131,86.888L1334.307,2964.695z"/>
										</g>
										<g>
											<path style="fill:#FCFDFE;" d="M1121.654,2002.076c-77.101-197.104,24.464-543.429,25.498-546.906l9.12,2.718
												c-1.025,3.443-101.664,346.67-25.756,540.721L1121.654,2002.076z"/>
										</g>
										<g>
											<path style="fill:#FCFDFE;" d="M1286.961,2565.45c-35.457-135.247-279.227-255.101-281.686-256.297l4.159-8.558
												c10.197,4.955,250.166,122.959,286.732,262.441L1286.961,2565.45z"/>
										</g>
										<g>
											<path style="fill:#FCFDFE;" d="M1300.693,2645.377c-7.445-94.536,32.624-226.909,112.828-372.738
												c1.869-3.398,3.052-5.523,3.37-6.232l3.843,1.717l5.342-0.351c0.104,1.599,0.104,1.599-4.217,9.453
												c-79.321,144.221-118.982,274.701-111.679,367.406L1300.693,2645.377z"/>
										</g>
										<g>
											<path style="fill:#FCFDFE;" d="M1330.627,2912.54c-35.866-92.789-177.948-138.224-179.378-138.673l2.843-9.079
												c6.02,1.88,147.909,47.295,185.411,144.324L1330.627,2912.54z"/>
										</g>
										<g>
											<path style="fill:#FCFDFE;" d="M1337.055,2963.376c23.988-80.682,71.817-157.007,146.224-233.332l6.813,6.64
												c-73.305,75.197-120.378,150.234-143.915,229.405L1337.055,2963.376z"/>
										</g>
										<g>
											<path style="fill:#FCFDFE;" d="M886.801,1579.741c-48.73-106.666-75.145-229.766-83.824-270.218
												c-1.403-6.53-2.613-12.169-2.966-13.193l8.843-3.512c0.546,1.337,1.208,4.375,3.425,14.708
												c8.628,40.2,34.878,162.538,83.176,268.261L886.801,1579.741z"/>
										</g>
										<g>
											<path style="fill:#FCFDFE;" d="M696.363,1649.37l0.479-9.502c9.288,0.467,228.349,12.441,301.625,94.748l-7.107,6.327
												C920.726,1661.617,698.596,1649.484,696.363,1649.37z"/>
										</g>
									</g>
								</g>
							</g>
							<g>
								
									<linearGradient id="SVGID_00000044176926402306796930000018213243981816304266_" gradientUnits="userSpaceOnUse" x1="2123.5645" y1="1701.9819" x2="2741.3811" y2="2719.0669" gradientTransform="matrix(0.9978 -0.0656 0.0656 0.9978 -1582.9064 94.9248)">
									<stop  offset="0.0036" style="stop-color:#E38DDD"/>
									<stop  offset="1" style="stop-color:#9571F6"/>
								</linearGradient>
								<path style="fill:url(#SVGID_00000044176926402306796930000018213243981816304266_);" d="M1268.872,2643.272
									c41.01-6.85,81.503-38.802,96.775-77.695c3.666-9.334,16.799-46.879-1.234-71.693
									c-10.165-13.988-24.441-18.268-34.896-20.747c-79.606-18.877-89.468-156.393-70.835-206.322
									c23.062-61.798,73.807-206.794-48.801-237.912c-102.069-25.906-173.23-21.762-187.718-150.411
									c-14.489-128.649-89.592-205.088-206.188-190.639c-122.7,15.206-233.188-142.9-330.921-82.221
									c-170.292,105.732,5.46,380.914,224.06,450.929s100.401,154.167,100.745,260.115c0.034,10.433,4.256,35.229,16.284,60.463
									c34.847,73.106,109.177,74.188,217.034,132.243C1179.745,2582.892,1197.98,2655.115,1268.872,2643.272z"/>
								<g>
									<defs>
										<path id="SVGID_00000158002679128650610570000016041153495266455730_" d="M1246.515,2647.485
											c44.312-1.254,93.448-27.153,112.748-68.548c12.615-27.059,17.01-70.445-4.489-92.45
											c-8.786-8.992-18.048-11.639-25.257-13.349c-79.606-18.877-89.468-156.393-70.835-206.322
											c23.063-61.797,73.806-206.793-48.801-237.911c-102.069-25.906-173.23-21.762-187.718-150.411
											c-14.489-128.649-89.592-205.089-206.188-190.639c-122.699,15.206-233.188-142.9-330.92-82.22
											c-170.293,105.731,5.46,380.913,224.059,450.929c218.6,70.015,100.401,154.166,100.746,260.114
											c0.036,10.928,4.258,35.302,16.287,60.464c36.58,76.52,114.223,71.016,224.053,137.578
											C1166.881,2585.435,1174.738,2649.517,1246.515,2647.485z"/>
									</defs>
									<clipPath id="SVGID_00000183943381633824719070000002367051603308000913_">
										<use xlink:href="#SVGID_00000158002679128650610570000016041153495266455730_"  style="overflow:visible;"/>
									</clipPath>
									<g style="opacity:0.5;clip-path:url(#SVGID_00000183943381633824719070000002367051603308000913_);">
										<g>
											<path style="fill:#FCFDFE;" d="M1235.062,2646.49c-116.483-437.789-455.674-851.457-824.851-1005.966l4.393-10.491
												c187.444,78.448,367.936,221.731,521.962,414.359c145.03,181.375,254.942,394.164,309.49,599.172L1235.062,2646.49z"/>
										</g>
										<g>
											<path style="fill:#FCFDFE;" d="M1131.888,2345.116c-10.488-170.916,127.212-312.592,128.605-314.005l8.099,7.989
												c-1.357,1.377-135.522,139.548-125.352,305.319L1131.888,2345.116z"/>
										</g>
										<g>
											<path style="fill:#FCFDFE;" d="M794.597,2348.236l0.019-11.376c12.765,0.02,313.683,2.232,404.061,147.659l-9.664,6.004
												C1101.975,2350.454,797.66,2348.239,794.597,2348.236z"/>
										</g>
										<g>
											<path style="fill:#FCFDFE;" d="M903.478,1996.995c-62.701-123.266,5.142-315.241,8.061-323.354l10.705,3.852
												c-0.698,1.94-69.087,195.484-8.624,314.344L903.478,1996.995z"/>
										</g>
										<g>
											<path style="fill:#FCFDFE;" d="M376.944,1799.152l-3.176-10.924c8.197-2.384,202.39-57.59,338.725,15.117l-5.35,10.038
												C574.849,1742.838,378.91,1798.582,376.944,1799.152z"/>
										</g>
									</g>
								</g>
							</g>
						</g>
					</g>
				</g>
			</g>
		</g>
		<g>
			<g>
				<g>
					
						<linearGradient id="SVGID_00000065052489866110229520000012937619522873707176_" gradientUnits="userSpaceOnUse" x1="1855.3113" y1="3309.9163" x2="1835.7572" y2="3237.2869">
						<stop  offset="0" style="stop-color:#EBEFF2"/>
						<stop  offset="0.4737" style="stop-color:#D2D9E1"/>
						<stop  offset="0.9946" style="stop-color:#B7C0CE"/>
					</linearGradient>
					<polygon style="fill:url(#SVGID_00000065052489866110229520000012937619522873707176_);" points="1982.105,3213.16 
						1797.701,3216.181 1798.28,3208.523 1687.229,3218.255 1687.229,3253.314 1799.177,3254.942 1798.347,3250.669 
						1982.105,3247.594 					"/>
					
						<linearGradient id="SVGID_00000100369960623187384210000006666489549185935036_" gradientUnits="userSpaceOnUse" x1="2021.718" y1="2505.0376" x2="1841.6105" y2="3554.3645">
						<stop  offset="0" style="stop-color:#EBEFF2"/>
						<stop  offset="0.4737" style="stop-color:#D2D9E1"/>
						<stop  offset="0.9946" style="stop-color:#B7C0CE"/>
					</linearGradient>
					<polygon style="fill:url(#SVGID_00000100369960623187384210000006666489549185935036_);" points="2072.302,2601.057 
						2072.302,3211.722 1832.932,3215.684 1832.932,2603.531 					"/>
					
						<linearGradient id="SVGID_00000155148306353459469330000003452733313029108138_" gradientUnits="userSpaceOnUse" x1="2005.2178" y1="3153.9795" x2="1972.1204" y2="3346.8086">
						<stop  offset="0" style="stop-color:#EBEFF2"/>
						<stop  offset="0.4737" style="stop-color:#D2D9E1"/>
						<stop  offset="0.9946" style="stop-color:#B7C0CE"/>
					</linearGradient>
					<polygon style="fill:url(#SVGID_00000155148306353459469330000003452733313029108138_);" points="2186.783,3248.442 
						1798.241,3255 1798.241,3207.565 2186.783,3201.193 					"/>
				</g>
				
					<linearGradient id="SVGID_00000129921423629669977990000002662225746979615905_" gradientUnits="userSpaceOnUse" x1="1989.3839" y1="2979.3022" x2="1957.96" y2="2862.5852">
					<stop  offset="0" style="stop-color:#EBEFF2"/>
					<stop  offset="0.4737" style="stop-color:#D2D9E1"/>
					<stop  offset="0.9946" style="stop-color:#B7C0CE"/>
				</linearGradient>
				<path style="opacity:0.4;fill:url(#SVGID_00000129921423629669977990000002662225746979615905_);" d="M2072.302,2788.237
					v123.164c-27.753,8.852-61.381,14.272-98.675,14.775c-58.398,0.787-109.473-10.731-140.695-28.932v-88.689
					c31.222-19.137,82.297-31.887,140.695-32.585C2010.921,2775.524,2044.549,2780.055,2072.302,2788.237z"/>
			</g>
			<g>
				
					<linearGradient id="SVGID_00000135682975368051153690000008061571820408944039_" gradientUnits="userSpaceOnUse" x1="2584.7642" y1="1664.4655" x2="990.9045" y2="2874.0911">
					<stop  offset="0" style="stop-color:#EBEFF2"/>
					<stop  offset="0.4737" style="stop-color:#D2D9E1"/>
					<stop  offset="0.9946" style="stop-color:#B7C0CE"/>
				</linearGradient>
				<path style="fill:url(#SVGID_00000135682975368051153690000008061571820408944039_);" d="M2886.056,2801.342l-244.565-1053.871
					c-6.101-26.287-32.061-47.135-57.263-48.792L864.974,1585.653c-32.703-2.15-56.283,18.231-52.175,48.174L978.92,2844.182
					c4.666,33.987,36.682,61.654,71.211,60.726l1800.005-48.382C2876.301,2855.822,2892.868,2830.69,2886.056,2801.342z"/>
				<g>
					
						<linearGradient id="SVGID_00000063630706548485752230000008901526656355537551_" gradientUnits="userSpaceOnUse" x1="886.7178" y1="2243.553" x2="2972.7078" y2="2243.553">
						<stop  offset="0" style="stop-color:#EBEFF2"/>
						<stop  offset="0.4737" style="stop-color:#D2D9E1"/>
						<stop  offset="0.9946" style="stop-color:#B7C0CE"/>
					</linearGradient>
					<path style="fill:url(#SVGID_00000063630706548485752230000008901526656355537551_);" d="M2667.732,1698.409L939.621,1585.653
						c-32.866-2.144-56.565,18.185-52.435,48.051l166.953,1207.301c4.688,33.901,36.865,61.503,71.569,60.581l1809.345-48.07
						c26.303-0.699,42.959-25.77,36.113-55.049l-245.87-1051.382C2719.164,1720.86,2693.067,1700.062,2667.732,1698.409z"/>
					<g>
						<g>
							
								<linearGradient id="SVGID_00000043433964797304588730000012547946579027830172_" gradientUnits="userSpaceOnUse" x1="2548.1184" y1="626.0862" x2="855.4862" y2="1910.6731">
								<stop  offset="0" style="stop-color:#AA80F9"/>
								<stop  offset="0.9964" style="stop-color:#6165D7"/>
							</linearGradient>
							<path style="fill:url(#SVGID_00000043433964797304588730000012547946579027830172_);" d="M1162.495,1671.523l24.914,163.362
								c1.644,10.776-5.846,19.105-16.765,18.587l-169.539-8.021c-11.199-0.531-21.918-9.837-23.466-20.767l-23.463-165.664
								c-1.52-10.73,6.638-18.865,17.74-18.182l167.893,10.324C1150.635,1651.83,1160.881,1660.941,1162.495,1671.523z"/>
							
								<linearGradient id="SVGID_00000080175621247002717570000009163143696953376186_" gradientUnits="userSpaceOnUse" x1="2721.9758" y1="755.8042" x2="989.2994" y2="2070.7817">
								<stop  offset="0" style="stop-color:#AA80F9"/>
								<stop  offset="0.9964" style="stop-color:#6165D7"/>
							</linearGradient>
							<path style="fill:url(#SVGID_00000080175621247002717570000009163143696953376186_);" d="M1197.834,1903.247l25.528,167.39
								c1.684,11.043-5.858,19.733-16.884,19.394l-171.223-5.261c-11.312-0.348-22.16-9.732-23.747-20.936l-24.05-169.81
								c-1.557-10.997,6.665-19.488,17.878-18.979l169.547,7.681C1185.815,1883.22,1196.18,1892.405,1197.834,1903.247z"/>
							
								<linearGradient id="SVGID_00000083771178925222683110000006736392001198375574_" gradientUnits="userSpaceOnUse" x1="2902.9929" y1="886.6291" x2="1128.7859" y2="2233.1255">
								<stop  offset="0" style="stop-color:#AA80F9"/>
								<stop  offset="0.9964" style="stop-color:#6165D7"/>
							</linearGradient>
							<path style="fill:url(#SVGID_00000083771178925222683110000006736392001198375574_);" d="M1234.046,2140.694l26.165,171.568
								c1.726,11.32-5.869,20.387-17.003,20.235l-172.938-2.36c-11.427-0.156-22.406-9.618-24.034-21.108l-24.66-174.113
								c-1.597-11.274,6.691-20.136,18.017-19.812l171.232,4.903C1221.864,2120.324,1232.351,2129.583,1234.046,2140.694z"/>
							
								<linearGradient id="SVGID_00000015332482506930424570000017776752007104444346_" gradientUnits="userSpaceOnUse" x1="3091.5535" y1="1018.5178" x2="1274.2546" y2="2397.7178">
								<stop  offset="0" style="stop-color:#AA80F9"/>
								<stop  offset="0.9964" style="stop-color:#6165D7"/>
							</linearGradient>
							<path style="fill:url(#SVGID_00000015332482506930424570000017776752007104444346_);" d="M1271.163,2384.079l26.827,175.906
								c1.77,11.608-5.878,21.068-17.123,21.113l-174.686,0.692c-11.544,0.047-22.658-9.496-24.328-21.282l-25.293-178.582
								c-1.638-11.562,6.717-20.811,18.158-20.68l172.948,1.982C1258.814,2363.355,1269.426,2372.689,1271.163,2384.079z"/>
							
								<linearGradient id="SVGID_00000103950665208286170010000017423179079780598454_" gradientUnits="userSpaceOnUse" x1="3288.0605" y1="1151.4255" x2="1426.0292" y2="2564.5742">
								<stop  offset="0" style="stop-color:#AA80F9"/>
								<stop  offset="0.9964" style="stop-color:#6165D7"/>
							</linearGradient>
							<path style="fill:url(#SVGID_00000103950665208286170010000017423179079780598454_);" d="M1309.221,2633.629l27.513,180.409
								c1.816,11.906-5.887,21.777-17.244,22.03l-176.467,3.903c-11.663,0.26-22.916-9.364-24.629-21.458l-25.95-183.226
								c-1.68-11.861,6.741-21.514,18.3-21.587l174.697-1.092C1296.7,2612.538,1307.44,2621.948,1309.221,2633.629z"/>
						</g>
						<g>
							
								<linearGradient id="SVGID_00000050650056230284238400000018307306799934221446_" gradientUnits="userSpaceOnUse" x1="2603.2349" y1="781.0767" x2="970.8911" y2="2019.9089">
								<stop  offset="0" style="stop-color:#AA80F9"/>
								<stop  offset="0.9964" style="stop-color:#6165D7"/>
							</linearGradient>
							<path style="fill:url(#SVGID_00000050650056230284238400000018307306799934221446_);" d="M1399.733,1685.858l26.496,160.708
								c1.748,10.6-4.915,18.803-15.466,18.303l-163.845-7.749c-10.816-0.513-21.361-9.657-23.02-20.405l-25.157-162.938
								c-1.63-10.555,6.396-18.567,17.123-17.906l161.957,9.977C1388.287,1666.491,1398.017,1675.446,1399.733,1685.858z"/>
							
								<linearGradient id="SVGID_00000121992851140909535670000010611175972747190700_" gradientUnits="userSpaceOnUse" x1="2770.7234" y1="913.5127" x2="1100.4408" y2="2181.1377">
								<stop  offset="0" style="stop-color:#AA80F9"/>
								<stop  offset="0.9964" style="stop-color:#6165D7"/>
							</linearGradient>
							<path style="fill:url(#SVGID_00000121992851140909535670000010611175972747190700_);" d="M1437.315,1913.804l27.138,164.603
								c1.79,10.858-4.911,19.414-15.561,19.086l-165.402-5.082c-10.921-0.336-21.589-9.556-23.289-20.569l-25.776-166.945
								c-1.67-10.813,6.416-19.167,17.245-18.676l163.483,7.417C1425.717,1894.118,1435.557,1903.141,1437.315,1913.804z"/>
							
								<linearGradient id="SVGID_00000029005316300187393530000009773624204055787404_" gradientUnits="userSpaceOnUse" x1="2944.9465" y1="1047.212" x2="1235.3419" y2="2344.6799">
								<stop  offset="0" style="stop-color:#AA80F9"/>
								<stop  offset="0.9964" style="stop-color:#6165D7"/>
							</linearGradient>
							<path style="fill:url(#SVGID_00000029005316300187393530000009773624204055787404_);" d="M1475.809,2147.283l27.804,168.64
								c1.834,11.125-4.906,20.049-15.656,19.903l-166.987-2.279c-11.027-0.15-21.822-9.447-23.565-20.736l-26.417-171.101
								c-1.711-11.081,6.435-19.791,17.369-19.477l165.036,4.729C1464.055,2127.268,1474.008,2136.36,1475.809,2147.283z"/>
							
								<linearGradient id="SVGID_00000130631943303825286680000017087364952861335173_" gradientUnits="userSpaceOnUse" x1="3126.2542" y1="1182.1475" x2="1375.876" y2="2510.5593">
								<stop  offset="0" style="stop-color:#AA80F9"/>
								<stop  offset="0.9964" style="stop-color:#6165D7"/>
							</linearGradient>
							<path style="fill:url(#SVGID_00000130631943303825286680000017087364952861335173_);" d="M1515.249,2386.5l28.494,172.828
								c1.88,11.403-4.899,20.71-15.75,20.754l-168.599,0.666c-11.135,0.045-22.06-9.329-23.847-20.904l-27.083-175.414
								c-1.754-11.359,6.453-20.44,17.493-20.314l166.617,1.905C1503.335,2366.144,1513.403,2375.307,1515.249,2386.5z"/>
							
								<linearGradient id="SVGID_00000157992898249198502870000014535149368089105072_" gradientUnits="userSpaceOnUse" x1="3315.0195" y1="1318.2849" x2="1522.3429" y2="2678.7983">
								<stop  offset="0" style="stop-color:#AA80F9"/>
								<stop  offset="0.9964" style="stop-color:#6165D7"/>
							</linearGradient>
							<path style="fill:url(#SVGID_00000157992898249198502870000014535149368089105072_);" d="M1555.67,2631.668l29.211,177.174
								c1.927,11.691-4.89,21.398-15.845,21.642l-170.241,3.762c-11.245,0.25-22.303-9.202-24.136-21.074l-27.774-179.892
								c-1.798-11.648,6.469-21.116,17.618-21.186l168.225-1.064C1543.592,2610.962,1553.778,2620.195,1555.67,2631.668z"/>
						</g>
						<g>
							
								<linearGradient id="SVGID_00000054945598888478794820000006474380956643368377_" gradientUnits="userSpaceOnUse" x1="2660.4832" y1="928.345" x2="1089.2559" y2="2120.7942">
								<stop  offset="0" style="stop-color:#AA80F9"/>
								<stop  offset="0.9964" style="stop-color:#6165D7"/>
							</linearGradient>
							<path style="fill:url(#SVGID_00000054945598888478794820000006474380956643368377_);" d="M1629.815,1699.74
								c-1.814-10.259-10.948-19.07-21.082-19.694l-156.591-9.646c-10.383-0.639-17.29,7.263-15.556,17.661l26.732,160.27
								c1.766,10.585,11.846,19.579,22.312,20.075l157.478,7.481c10.213,0.484,16.513-7.601,14.667-18.042L1629.815,1699.74z"/>
							
								<linearGradient id="SVGID_00000088123746620272382280000010085433968232282025_" gradientUnits="userSpaceOnUse" x1="2822.1184" y1="1063.1934" x2="1214.567" y2="2283.21">
								<stop  offset="0" style="stop-color:#AA80F9"/>
								<stop  offset="0.9964" style="stop-color:#6165D7"/>
							</linearGradient>
							<path style="fill:url(#SVGID_00000088123746620272382280000010085433968232282025_);" d="M1669.478,1924.016l28.633,161.911
								c1.888,10.678-4.359,19.099-14.652,18.782l-159.297-4.901c-10.551-0.324-20.464-9.377-22.271-20.207l-27.384-164.183
								c-1.774-10.636,5.44-18.864,15.906-18.39l157.694,7.166C1658.32,1904.658,1667.622,1913.525,1669.478,1924.016z"/>
							
								<linearGradient id="SVGID_00000158021859450605974220000013472806023897735347_" gradientUnits="userSpaceOnUse" x1="2989.7185" y1="1199.7792" x2="1345.1403" y2="2447.8965">
								<stop  offset="0" style="stop-color:#AA80F9"/>
								<stop  offset="0.9964" style="stop-color:#6165D7"/>
							</linearGradient>
							<path style="fill:url(#SVGID_00000158021859450605974220000013472806023897735347_);" d="M1710.09,2153.663l29.324,165.814
								c0.157,0.886,0.835,1.785,0.863,2.628c0.478,9.698-5.768,17.082-15.312,16.952l-160.895-2.192
								c-10.649-0.145-20.815-9.27-22.666-20.366L1513.35,2148.3c-1.817-10.895,5.442-19.471,16.005-19.169l159.125,4.563
								C1698.784,2133.99,1708.19,2142.921,1710.09,2153.663z"/>
							
								<linearGradient id="SVGID_00000163033321578889190120000014395090601924885644_" gradientUnits="userSpaceOnUse" x1="3164.1809" y1="1337.3265" x2="1480.7987" y2="2614.8933">
								<stop  offset="0" style="stop-color:#AA80F9"/>
								<stop  offset="0.9964" style="stop-color:#6165D7"/>
							</linearGradient>
							<path style="fill:url(#SVGID_00000163033321578889190120000014395090601924885644_);" d="M1751.683,2388.857l30.039,169.861
								c1.982,11.205-4.326,20.354-14.805,20.396l-162.233,0.66c-10.748,0.043-20.893-9.148-22.79-20.52l-28.749-172.365
								c-1.862-11.163,5.443-20.103,16.104-19.98l160.58,1.831C1740.225,2368.858,1749.737,2377.854,1751.683,2388.857z"/>
							
								<linearGradient id="SVGID_00000006698639320768300140000004350264263137433504_" gradientUnits="userSpaceOnUse" x1="3345.5518" y1="1476.4484" x2="1622.1603" y2="2784.3794">
								<stop  offset="0" style="stop-color:#AA80F9"/>
								<stop  offset="0.9964" style="stop-color:#6165D7"/>
							</linearGradient>
							<path style="fill:url(#SVGID_00000006698639320768300140000004350264263137433504_);" d="M1794.293,2629.8l30.781,174.057
								c2.031,11.483-4.307,21.019-14.881,21.254l-163.738,3.653c-10.85,0.241-21.114-9.021-23.059-20.68l-29.47-176.687
								c-1.908-11.442,5.443-20.76,16.204-20.827l162.058-1.039C1782.679,2609.465,1792.299,2618.527,1794.293,2629.8z"/>
						</g>
						<g>
							
								<linearGradient id="SVGID_00000072273142638820439050000001759557483804249257_" gradientUnits="userSpaceOnUse" x1="2719.783" y1="1068.0891" x2="1210.4918" y2="2213.5332">
								<stop  offset="0" style="stop-color:#AA80F9"/>
								<stop  offset="0.9964" style="stop-color:#6165D7"/>
							</linearGradient>
							<path style="fill:url(#SVGID_00000072273142638820439050000001759557483804249257_);" d="M1852.289,1713.15
								c-1.903-10.099-10.703-18.764-20.51-19.367l-150.629-9.33c-10.044-0.618-15.726,7.172-13.896,17.406l28.201,157.727
								c1.862,10.416,10.928,19.251,21.05,19.731l151.755,7.231c9.88,0.468,15.285-7.501,13.349-17.776L1852.289,1713.15z"/>
							
								<linearGradient id="SVGID_00000116232342657505995490000017128139650530673292_" gradientUnits="userSpaceOnUse" x1="2875.1521" y1="1205.4891" x2="1331.8025" y2="2376.781">
								<stop  offset="0" style="stop-color:#AA80F9"/>
								<stop  offset="0.9964" style="stop-color:#6165D7"/>
							</linearGradient>
							<path style="fill:url(#SVGID_00000116232342657505995490000017128139650530673292_);" d="M1893.881,1933.909
								c-1.947-10.334-10.842-19.059-20.732-19.508l-151.925-6.923c-10.132-0.459-15.838,7.662-13.965,18.139l28.871,161.475
								c1.907,10.665,11.073,19.562,21.284,19.876l153.068,4.722c9.965,0.306,15.387-7.997,13.406-18.515L1893.881,1933.909z"/>
							
								<linearGradient id="SVGID_00000097500005099082175600000003082423413796670362_" gradientUnits="userSpaceOnUse" x1="3036.4941" y1="1344.4155" x2="1457.885" y2="2542.467">
								<stop  offset="0" style="stop-color:#AA80F9"/>
								<stop  offset="0.9964" style="stop-color:#6165D7"/>
							</linearGradient>
							<path style="fill:url(#SVGID_00000097500005099082175600000003082423413796670362_);" d="M1936.45,2159.847
								c-1.993-10.578-10.984-19.364-20.959-19.649l-153.24-4.401c-10.222-0.293-15.951,8.175-14.032,18.902l29.565,165.358
								c1.953,10.922,11.221,19.882,21.523,20.022l154.401,2.092c10.05,0.137,15.49-8.516,13.461-19.283L1936.45,2159.847z"/>
							
								<linearGradient id="SVGID_00000113325249994289368450000010670547267102491524_" gradientUnits="userSpaceOnUse" x1="3205.1265" y1="1484.0834" x2="1588.7343" y2="2710.8096">
								<stop  offset="0" style="stop-color:#AA80F9"/>
								<stop  offset="0.9964" style="stop-color:#6165D7"/>
							</linearGradient>
							<path style="fill:url(#SVGID_00000113325249994289368450000010670547267102491524_);" d="M1980.026,2391.131l31.463,166.993
								c2.075,11.014-3.723,20.011-13.849,20.052l-155.798,0.668c-10.382,0.042-19.392-8.962-21.39-20.138l-30.292-169.424
								c-1.962-10.975,4.133-19.786,14.434-19.668l154.607,1.754C1969.251,2371.482,1977.988,2380.312,1980.026,2391.131z"/>
							
								<linearGradient id="SVGID_00000053522172757794750280000017218619002092853929_" gradientUnits="userSpaceOnUse" x1="3379.4133" y1="1625.9697" x2="1725.1708" y2="2881.4216">
								<stop  offset="0" style="stop-color:#AA80F9"/>
								<stop  offset="0.9964" style="stop-color:#6165D7"/>
							</linearGradient>
							<path style="fill:url(#SVGID_00000053522172757794750280000017218619002092853929_);" d="M2024.653,2627.992l32.227,171.048
								c2.126,11.283-3.693,20.655-13.906,20.882l-157.171,3.564c-10.475,0.233-19.587-8.832-21.635-20.285l-31.039-173.599
								c-2.01-11.244,4.112-20.427,14.505-20.492l155.962-1.022C2013.732,2608.024,2022.565,2616.912,2024.653,2627.992z"/>
						</g>
						<g>
							
								<linearGradient id="SVGID_00000099647243363344437950000007804074964075895483_" gradientUnits="userSpaceOnUse" x1="2800.4988" y1="1185.2627" x2="1318.2003" y2="2310.2214">
								<stop  offset="0" style="stop-color:#AA80F9"/>
								<stop  offset="0.9964" style="stop-color:#6165D7"/>
							</linearGradient>
							<path style="fill:url(#SVGID_00000099647243363344437950000007804074964075895483_);" d="M2070.532,1726.145
								c-1.986-9.945-11.911-18.475-21.408-19.059l-147.621-9.038c-9.721-0.598-16.89,7.072-14.974,17.147l29.526,155.244
								c1.949,10.25,12.006,18.95,21.798,19.414l148.737,7.016c9.564,0.453,16.568-7.379,14.548-17.495L2070.532,1726.145z"/>
							
								<linearGradient id="SVGID_00000150086124999441757430000003586129568579899578_" gradientUnits="userSpaceOnUse" x1="2952.3711" y1="1323.1965" x2="1437.5536" y2="2472.8347">
								<stop  offset="0" style="stop-color:#AA80F9"/>
								<stop  offset="0.9964" style="stop-color:#6165D7"/>
							</linearGradient>
							<path style="fill:url(#SVGID_00000150086124999441757430000003586129568579899578_);" d="M2113.945,1943.496
								c-2.032-10.173-12.064-18.77-21.638-19.204l-148.843-6.719c-9.803-0.444-17.013,7.535-15.052,17.844l30.215,158.872
								c1.995,10.491,12.162,19.26,22.037,19.563l149.975,4.601c9.642,0.297,16.683-7.846,14.616-18.197L2113.945,1943.496z"/>
							
								<linearGradient id="SVGID_00000015342905309165515260000006788169898746920353_" gradientUnits="userSpaceOnUse" x1="3109.9097" y1="1462.7396" x2="1561.4497" y2="2637.9102">
								<stop  offset="0" style="stop-color:#AA80F9"/>
								<stop  offset="0.9964" style="stop-color:#6165D7"/>
							</linearGradient>
							<path style="fill:url(#SVGID_00000015342905309165515260000006788169898746920353_);" d="M2158.361,2165.865
								c-2.079-10.409-12.221-19.075-21.873-19.351l-150.082-4.29c-9.886-0.283-17.136,8.017-15.13,18.568l30.93,162.628
								c2.043,10.74,12.323,19.578,22.282,19.714l151.23,2.07c9.721,0.132,16.799-8.333,14.683-18.926L2158.361,2165.865z"/>
							
								<linearGradient id="SVGID_00000021115529637479842100000009484852446554059690_" gradientUnits="userSpaceOnUse" x1="3269.9109" y1="1606.5223" x2="1691.1285" y2="2804.7053">
								<stop  offset="0" style="stop-color:#AA80F9"/>
								<stop  offset="0.9964" style="stop-color:#6165D7"/>
							</linearGradient>
							<path style="fill:url(#SVGID_00000021115529637479842100000009484852446554059690_);" d="M2203.81,2393.407l32.804,164.237
								c2.163,10.831-4.669,19.633-14.459,19.673l-152.49,0.585c-10.032,0.041-20.747-8.871-22.837-19.857l-31.677-166.559
								c-2.052-10.791,4.911-19.425,14.869-19.311l150.774,1.729c8.82,0.101,18.291,7.264,21.418,16.562
								C2202.55,2391.413,2203.613,2392.421,2203.81,2393.407z"/>
							
								<linearGradient id="SVGID_00000117650434923365054970000005609350325873544621_" gradientUnits="userSpaceOnUse" x1="3442.5173" y1="1747.0869" x2="1823.9337" y2="2975.4761">
								<stop  offset="0" style="stop-color:#AA80F9"/>
								<stop  offset="0.9964" style="stop-color:#6165D7"/>
							</linearGradient>
							<path style="fill:url(#SVGID_00000117650434923365054970000005609350325873544621_);" d="M2250.336,2626.346l33.587,168.157
								c2.215,11.091-4.649,20.245-14.521,20.464l-153.78,3.368c-10.119,0.225-20.957-8.761-23.097-20.014l-32.444-170.592
								c-2.102-11.051,4.898-20.035,14.941-20.099l152.701-0.924C2237.523,2606.646,2248.16,2615.451,2250.336,2626.346z"/>
						</g>
						<g>
							
								<linearGradient id="SVGID_00000156574539772024559430000000335591077935500953_" gradientUnits="userSpaceOnUse" x1="2860.7856" y1="1311.4127" x2="1441.6565" y2="2388.4302">
								<stop  offset="0" style="stop-color:#AA80F9"/>
								<stop  offset="0.9964" style="stop-color:#6165D7"/>
							</linearGradient>
							<path style="fill:url(#SVGID_00000156574539772024559430000000335591077935500953_);" d="M2276.535,1738.705
								c-2.061-9.794-10.393-18.181-19.592-18.747l-142.105-8.75c-9.414-0.579-15.38,6.985-13.382,16.906l30.775,152.851
								c2.032,10.091,11.709,18.647,21.189,19.096l142.523,6.778c9.261,0.439,14.435-7.294,12.339-17.253L2276.535,1738.705z"/>
							
								<linearGradient id="SVGID_00000009558021368240580480000000888949363783963811_" gradientUnits="userSpaceOnUse" x1="3007.0032" y1="1451.5074" x2="1557.0576" y2="2551.9126">
								<stop  offset="0" style="stop-color:#AA80F9"/>
								<stop  offset="0.9964" style="stop-color:#6165D7"/>
							</linearGradient>
							<path style="fill:url(#SVGID_00000009558021368240580480000000888949363783963811_);" d="M2321.566,1952.715
								c-2.107-10.015-10.525-18.457-19.796-18.878l-143.225-6.496c-9.489-0.43-15.479,7.44-13.436,17.587l31.482,156.365
								c2.079,10.324,11.861,18.946,21.417,19.24l143.649,4.427c9.333,0.287,14.519-7.757,12.375-17.944L2321.566,1952.715z"/>
							
								<linearGradient id="SVGID_00000023276523879291902160000010369036221055311765_" gradientUnits="userSpaceOnUse" x1="3158.5679" y1="1593.3083" x2="1676.7563" y2="2717.8975">
								<stop  offset="0" style="stop-color:#AA80F9"/>
								<stop  offset="0.9964" style="stop-color:#6165D7"/>
							</linearGradient>
							<path style="fill:url(#SVGID_00000023276523879291902160000010369036221055311765_);" d="M2367.619,2171.586
								c-2.155-10.243-10.66-18.742-20.003-19.009l-144.36-4.136c-9.565-0.274-15.578,7.913-13.488,18.296l32.215,160
								c2.127,10.565,12.016,19.253,21.649,19.384l144.789,1.965c9.406,0.128,14.602-8.24,12.41-18.661L2367.619,2171.586z"/>
							
								<linearGradient id="SVGID_00000028298246059339480870000002469659998880503697_" gradientUnits="userSpaceOnUse" x1="3316.1528" y1="1736.7435" x2="1800.8406" y2="2886.7571">
								<stop  offset="0" style="stop-color:#AA80F9"/>
								<stop  offset="0.9964" style="stop-color:#6165D7"/>
							</linearGradient>
							<path style="fill:url(#SVGID_00000028298246059339480870000002469659998880503697_);" d="M2414.726,2395.465l33.99,161.541
								c2.241,10.651-2.784,19.354-12.253,19.393l-146.562,0.595c-9.7,0.039-19.282-8.695-21.457-19.497l-32.98-163.804
								c-0.578-2.87-0.228-5.601,0.358-8.048c1.429-6.563,6.714-11.031,13.743-10.951l144.883,1.648
								C2403.851,2376.448,2412.524,2384.997,2414.726,2395.465z"/>
							
								<linearGradient id="SVGID_00000130630437047562389840000001030052429418045348_" gradientUnits="userSpaceOnUse" x1="3479.0908" y1="1881.9901" x2="1929.8029" y2="3057.7891">
								<stop  offset="0" style="stop-color:#AA80F9"/>
								<stop  offset="0.9964" style="stop-color:#6165D7"/>
							</linearGradient>
							<path style="fill:url(#SVGID_00000130630437047562389840000001030052429418045348_);" d="M2462.932,2624.566l34.788,165.332
								c2.294,10.903-2.738,19.957-12.282,20.169l-147.739,3.292c-9.78,0.218-19.468-8.581-21.694-19.642l-33.766-167.704
								c-2.188-10.865,4.273-19.705,13.984-19.766l146.124-0.944C2451.826,2605.244,2460.678,2613.853,2462.932,2624.566z"/>
						</g>
						<g>
							
								<linearGradient id="SVGID_00000139292741979496723500000003598802010369095080_" gradientUnits="userSpaceOnUse" x1="2934.7463" y1="1424.1567" x2="1561.0233" y2="2466.7144">
								<stop  offset="0" style="stop-color:#AA80F9"/>
								<stop  offset="0.9964" style="stop-color:#6165D7"/>
							</linearGradient>
							<path style="fill:url(#SVGID_00000139292741979496723500000003598802010369095080_);" d="M2481.475,1750.902
								c-2.133-9.649-11.587-17.911-20.504-18.459l-137.104-8.477c-9.122-0.561-14.177,6.9-12.103,16.672l31.951,150.541
								c2.109,9.937,10.344,18.344,19.526,18.779l138.728,6.573c8.975,0.425,14.524-7.19,12.356-17L2481.475,1750.902z"/>
							
								<linearGradient id="SVGID_00000065073866546156988090000007344886543849100169_" gradientUnits="userSpaceOnUse" x1="3076.6545" y1="1565.4396" x2="1673.6079" y2="2630.2517">
								<stop  offset="0" style="stop-color:#AA80F9"/>
								<stop  offset="0.9964" style="stop-color:#6165D7"/>
							</linearGradient>
							<path style="fill:url(#SVGID_00000065073866546156988090000007344886543849100169_);" d="M2528.068,1961.709
								c-2.18-9.863-11.732-18.187-20.715-18.595l-138.133-6.286c-9.192-0.417-14.258,7.345-12.137,17.337l32.674,153.946
								c2.157,10.163,10.476,18.624,19.729,18.909l139.776,4.299c9.041,0.278,14.606-7.634,12.389-17.664L2528.068,1961.709z"/>
							
								<linearGradient id="SVGID_00000142865606867028864100000006937681738933511568_" gradientUnits="userSpaceOnUse" x1="3223.6301" y1="1708.5016" x2="1790.2777" y2="2796.3137">
								<stop  offset="0" style="stop-color:#AA80F9"/>
								<stop  offset="0.9964" style="stop-color:#6165D7"/>
							</linearGradient>
							<path style="fill:url(#SVGID_00000142865606867028864100000006937681738933511568_);" d="M2575.703,2177.228
								c-2.229-10.085-11.881-18.472-20.931-18.731l-139.174-3.994c-9.262-0.265-14.338,7.809-12.169,18.028l33.421,157.468
								c2.207,10.396,10.612,18.912,19.937,19.04l140.837,1.919c9.109,0.124,14.688-8.097,12.421-18.354L2575.703,2177.228z"/>
							
								<linearGradient id="SVGID_00000165912711594228067810000008243714579445055919_" gradientUnits="userSpaceOnUse" x1="3376.0544" y1="1853.0248" x2="1911.041" y2="2964.8652">
								<stop  offset="0" style="stop-color:#AA80F9"/>
								<stop  offset="0.9964" style="stop-color:#6165D7"/>
							</linearGradient>
							<path style="fill:url(#SVGID_00000165912711594228067810000008243714579445055919_);" d="M2624.41,2397.6l35.134,158.96
								c2.316,10.48-3.76,19-12.926,19.037l-141.192,0.596c-9.386,0.038-18.135-8.534-20.39-19.16l-34.203-161.151
								c-2.217-10.444,2.602-18.841,11.925-18.734l141.005,1.614C2612.869,2378.866,2622.133,2387.297,2624.41,2397.6z"/>
							
								<linearGradient id="SVGID_00000012430167407239199340000014532192978788492704_" gradientUnits="userSpaceOnUse" x1="3533.9131" y1="1999.6558" x2="2036.4875" y2="3136.0947">
								<stop  offset="0" style="stop-color:#AA80F9"/>
								<stop  offset="0.9964" style="stop-color:#6165D7"/>
							</linearGradient>
							<path style="fill:url(#SVGID_00000012430167407239199340000014532192978788492704_);" d="M2674.236,2623.029l35.945,162.63
								c2.37,10.723-3.725,19.573-12.96,19.778l-142.268,3.21c-9.459,0.21-18.301-8.418-20.61-19.294l-35.003-164.924
								c-2.268-10.687,2.555-19.423,11.95-19.482l142.079-0.892C2662.544,2603.997,2671.906,2612.49,2674.236,2623.029z"/>
						</g>
						<g>
							
								<linearGradient id="SVGID_00000006674572135142105280000010686381487690322308_" gradientUnits="userSpaceOnUse" x1="3007.4226" y1="1531.0237" x2="1679.5629" y2="2538.7744">
								<stop  offset="0" style="stop-color:#AA80F9"/>
								<stop  offset="0.9964" style="stop-color:#6165D7"/>
							</linearGradient>
							<path style="fill:url(#SVGID_00000006674572135142105280000010686381487690322308_);" d="M2677.296,1762.712
								c-2.198-9.507-11.31-17.64-19.957-18.172l-132.759-8.218c-8.842-0.544-13.469,6.815-11.326,16.442l33.019,148.289
								c2.179,9.787,10.182,18.061,19.081,18.482l134.254,6.369c8.7,0.412,13.768-7.097,11.534-16.76L2677.296,1762.712z"/>
							
								<linearGradient id="SVGID_00000110434964391259533970000014915562655024656303_" gradientUnits="userSpaceOnUse" x1="3145.1223" y1="1673.3976" x2="1789.3561" y2="2702.3271">
								<stop  offset="0" style="stop-color:#AA80F9"/>
								<stop  offset="0.9964" style="stop-color:#6165D7"/>
							</linearGradient>
							<path style="fill:url(#SVGID_00000110434964391259533970000014915562655024656303_);" d="M2725.3,1970.391
								c-2.246-9.715-11.451-17.908-20.158-18.302l-133.708-6.09c-8.907-0.404-13.538,7.248-11.347,17.088l33.754,151.59
								c2.228,10.006,10.311,18.332,19.274,18.607l135.221,4.161c8.762,0.27,13.837-7.529,11.554-17.406L2725.3,1970.391z"/>
							
								<linearGradient id="SVGID_00000106138316868938066250000011984510191348203395_" gradientUnits="userSpaceOnUse" x1="3287.6282" y1="1817.6133" x2="1903.0358" y2="2868.4199">
								<stop  offset="0" style="stop-color:#AA80F9"/>
								<stop  offset="0.9964" style="stop-color:#6165D7"/>
							</linearGradient>
							<path style="fill:url(#SVGID_00000106138316868938066250000011984510191348203395_);" d="M2774.361,2182.639
								c-2.295-9.93-11.594-18.183-20.364-18.434l-134.668-3.866c-8.972-0.257-13.606,7.698-11.366,17.759l34.514,155.002
								c2.278,10.232,10.443,18.61,19.472,18.733l136.198,1.854c8.824,0.12,13.906-7.979,11.572-18.076L2774.361,2182.639z"/>
							
								<linearGradient id="SVGID_00000119118445351284739970000009941577805896116623_" gradientUnits="userSpaceOnUse" x1="3435.0674" y1="1963.3369" x2="2020.5365" y2="3036.8647">
								<stop  offset="0" style="stop-color:#AA80F9"/>
								<stop  offset="0.9964" style="stop-color:#6165D7"/>
							</linearGradient>
							<path style="fill:url(#SVGID_00000119118445351284739970000009941577805896116623_);" d="M2824.508,2399.591l36.162,156.446
								c2.384,10.313-3.219,18.701-12.095,18.737l-136.526,0.582c-9.086,0.037-17.498-8.392-19.826-18.846l-35.308-158.57
								c-0.531-2.382-1.676-4.706-1.375-6.801c0.837-6.874,5.132-11.733,12.066-11.654l136.606,1.564
								C2813.033,2381.151,2822.164,2389.45,2824.508,2399.591z"/>
							
								<linearGradient id="SVGID_00000181803677111257950010000003316238326025600138_" gradientUnits="userSpaceOnUse" x1="3588.2068" y1="2111.2332" x2="2142.4917" y2="3208.4275">
								<stop  offset="0" style="stop-color:#AA80F9"/>
								<stop  offset="0.9964" style="stop-color:#6165D7"/>
							</linearGradient>
							<path style="fill:url(#SVGID_00000181803677111257950010000003316238326025600138_);" d="M2875.789,2621.442l36.983,159.999
								c2.438,10.548-3.176,19.257-12.115,19.456l-137.514,3.113c-9.154,0.204-17.653-8.279-20.035-18.975l-36.122-162.222
								c-2.341-10.513,2.118-19.109,11.213-19.166l137.341-0.87C2864.425,2602.722,2873.392,2611.072,2875.789,2621.442z"/>
						</g>
					</g>
					
						<linearGradient id="SVGID_00000139973209738297841440000009643231211867742100_" gradientUnits="userSpaceOnUse" x1="1157.9449" y1="1681.1263" x2="972.2434" y2="1822.0605">
						<stop  offset="0" style="stop-color:#AA80F9"/>
						<stop  offset="0.9964" style="stop-color:#6165D7"/>
					</linearGradient>
					<path style="opacity:0.2;fill:url(#SVGID_00000139973209738297841440000009643231211867742100_);" d="M1093.277,1648.288
						c23.486,12.966,48.321,27.214,72.194,42.755l21.937,143.842c1.644,10.776-5.846,19.105-16.765,18.587l-169.539-8.021
						c-11.199-0.531-21.918-9.837-23.466-20.767l-23.463-165.664c-1.52-10.73,6.629-18.865,17.731-18.182L1093.277,1648.288z"/>
					
						<linearGradient id="SVGID_00000079448098857193586830000014377499133015661210_" gradientUnits="userSpaceOnUse" x1="1204.4312" y1="1907.5122" x2="1004.5206" y2="2059.23">
						<stop  offset="0" style="stop-color:#AA80F9"/>
						<stop  offset="0.9964" style="stop-color:#6165D7"/>
					</linearGradient>
					<path style="opacity:0.2;fill:url(#SVGID_00000079448098857193586830000014377499133015661210_);" d="M1197.834,1903.247
						l25.528,167.39c1.684,11.043-5.858,19.733-16.884,19.394l-171.223-5.261c-11.312-0.348-22.16-9.732-23.747-20.936
						l-24.05-169.81c-1.557-10.997,6.665-19.488,17.878-18.979l169.547,7.681C1185.815,1883.22,1196.18,1892.405,1197.834,1903.247z
						"/>
					
						<linearGradient id="SVGID_00000181073353945948240200000001937422767925480363_" gradientUnits="userSpaceOnUse" x1="1242.2769" y1="2146.9939" x2="1037.5746" y2="2302.3481">
						<stop  offset="0" style="stop-color:#AA80F9"/>
						<stop  offset="0.9964" style="stop-color:#6165D7"/>
					</linearGradient>
					<path style="opacity:0.2;fill:url(#SVGID_00000181073353945948240200000001937422767925480363_);" d="M1234.046,2140.694
						l26.165,171.568c1.726,11.32-5.869,20.387-17.003,20.235l-172.938-2.36c-11.427-0.156-22.406-9.618-24.034-21.108
						l-24.66-174.113c-1.597-11.274,6.691-20.136,18.017-19.812l171.232,4.903
						C1221.864,2120.324,1232.351,2129.583,1234.046,2140.694z"/>
					
						<linearGradient id="SVGID_00000055688743597220065300000004767691938189782676_" gradientUnits="userSpaceOnUse" x1="1281.1089" y1="2392.5159" x2="1071.4349" y2="2551.6433">
						<stop  offset="0" style="stop-color:#AA80F9"/>
						<stop  offset="0.9964" style="stop-color:#6165D7"/>
					</linearGradient>
					<path style="opacity:0.2;fill:url(#SVGID_00000055688743597220065300000004767691938189782676_);" d="M1271.163,2384.079
						l26.827,175.906c1.77,11.608-5.878,21.068-17.123,21.113l-174.686,0.692c-11.544,0.047-22.658-9.496-24.328-21.282
						l-25.293-178.582c-1.638-11.562,6.717-20.811,18.158-20.68l172.948,1.982
						C1258.814,2363.355,1269.426,2372.689,1271.163,2384.079z"/>
					
						<linearGradient id="SVGID_00000002350757840620751210000011734840989183359123_" gradientUnits="userSpaceOnUse" x1="1320.9663" y1="2644.3096" x2="1106.1312" y2="2807.354">
						<stop  offset="0" style="stop-color:#AA80F9"/>
						<stop  offset="0.9964" style="stop-color:#6165D7"/>
					</linearGradient>
					<path style="opacity:0.2;fill:url(#SVGID_00000002350757840620751210000011734840989183359123_);" d="M1309.221,2633.629
						l27.513,180.409c1.816,11.906-5.887,21.777-17.244,22.03l-176.467,3.903c-11.663,0.26-22.916-9.364-24.629-21.458
						l-25.95-183.226c-1.68-11.861,6.741-21.514,18.3-21.587l174.697-1.092C1296.7,2612.538,1307.44,2621.948,1309.221,2633.629z"/>
					
						<linearGradient id="SVGID_00000004526319445481996410000006422118621963382430_" gradientUnits="userSpaceOnUse" x1="1316.6733" y1="1774.448" x2="1225.7396" y2="1843.4602">
						<stop  offset="0" style="stop-color:#AA80F9"/>
						<stop  offset="0.9964" style="stop-color:#6165D7"/>
					</linearGradient>
					<path style="opacity:0.2;fill:url(#SVGID_00000004526319445481996410000006422118621963382430_);" d="M1223.898,1836.715
						l-18.298-118.511c60.485,40.344,120.186,88.384,178.751,145.421l-137.527-6.506
						C1236.009,1856.607,1225.558,1847.463,1223.898,1836.715z"/>
					
						<linearGradient id="SVGID_00000078015797433696031890000002235913774390247586_" gradientUnits="userSpaceOnUse" x1="1440.6554" y1="1922.8828" x2="1252.2994" y2="2065.8315">
						<stop  offset="0" style="stop-color:#AA80F9"/>
						<stop  offset="0.9964" style="stop-color:#6165D7"/>
					</linearGradient>
					<path style="opacity:0.2;fill:url(#SVGID_00000078015797433696031890000002235913774390247586_);" d="M1414.296,1893.589
						c8.208,8.544,15.162,17.278,24.004,26.191l26.153,158.628c1.79,10.858-4.911,19.414-15.561,19.086l-165.402-5.082
						c-10.921-0.336-21.589-9.556-23.289-20.569l-25.776-166.945c-1.67-10.813,6.187-19.169,17.016-18.678L1414.296,1893.589z"/>
					
						<linearGradient id="SVGID_00000109737416989754730660000016496219777708395686_" gradientUnits="userSpaceOnUse" x1="1485.1415" y1="2155.0999" x2="1287.8928" y2="2304.7974">
						<stop  offset="0" style="stop-color:#AA80F9"/>
						<stop  offset="0.9964" style="stop-color:#6165D7"/>
					</linearGradient>
					<path style="opacity:0.2;fill:url(#SVGID_00000109737416989754730660000016496219777708395686_);" d="M1475.809,2147.283
						l27.804,168.64c1.834,11.125-4.906,20.049-15.656,19.903l-166.987-2.279c-11.027-0.15-21.822-9.447-23.565-20.736
						l-26.417-171.101c-1.711-11.081,6.435-19.791,17.369-19.477l165.036,4.729
						C1464.055,2127.268,1474.008,2136.36,1475.809,2147.283z"/>
					
						<linearGradient id="SVGID_00000041275083191259198590000003671026929286046882_" gradientUnits="userSpaceOnUse" x1="1526.2683" y1="2396.4224" x2="1324.3154" y2="2549.6902">
						<stop  offset="0" style="stop-color:#AA80F9"/>
						<stop  offset="0.9964" style="stop-color:#6165D7"/>
					</linearGradient>
					<path style="opacity:0.2;fill:url(#SVGID_00000041275083191259198590000003671026929286046882_);" d="M1515.249,2386.5
						l28.494,172.828c1.88,11.403-4.899,20.71-15.75,20.754l-168.599,0.666c-11.135,0.045-22.06-9.329-23.847-20.904
						l-27.083-175.414c-1.754-11.359,6.453-20.44,17.493-20.314l166.617,1.905C1503.335,2366.144,1513.403,2375.307,1515.249,2386.5
						z"/>
					
						<linearGradient id="SVGID_00000083046908834629659150000004145369432860387463_" gradientUnits="userSpaceOnUse" x1="1568.4584" y1="2643.7998" x2="1361.6252" y2="2800.7715">
						<stop  offset="0" style="stop-color:#AA80F9"/>
						<stop  offset="0.9964" style="stop-color:#6165D7"/>
					</linearGradient>
					<path style="opacity:0.2;fill:url(#SVGID_00000083046908834629659150000004145369432860387463_);" d="M1555.67,2631.668
						l29.211,177.174c1.927,11.691-4.89,21.398-15.845,21.642l-170.241,3.762c-11.245,0.25-22.303-9.202-24.136-21.074
						l-27.774-179.892c-1.798-11.648,6.469-21.116,17.618-21.186l168.225-1.064
						C1543.592,2610.962,1553.778,2620.195,1555.67,2631.668z"/>
					
						<linearGradient id="SVGID_00000074423102883440478950000006637780453372004266_" gradientUnits="userSpaceOnUse" x1="1532.7363" y1="2034.8872" x2="1489.5397" y2="2067.6704">
						<stop  offset="0" style="stop-color:#AA80F9"/>
						<stop  offset="0.9964" style="stop-color:#6165D7"/>
					</linearGradient>
					<path style="opacity:0.2;fill:url(#SVGID_00000074423102883440478950000006637780453372004266_);" d="M1501.892,2079.601
						l-17.926-107.478c32.629,39.561,63.373,82.548,92.583,129.292l-52.189-1.604
						C1513.808,2099.486,1503.698,2090.431,1501.892,2079.601z"/>
					
						<linearGradient id="SVGID_00000048465785577672359800000006486752269169512893_" gradientUnits="userSpaceOnUse" x1="1656.8477" y1="2211.4746" x2="1530.8851" y2="2307.0713">
						<stop  offset="0" style="stop-color:#AA80F9"/>
						<stop  offset="0.9964" style="stop-color:#6165D7"/>
					</linearGradient>
					<path style="opacity:0.2;fill:url(#SVGID_00000048465785577672359800000006486752269169512893_);" d="M1541.404,2316.499
						L1513.35,2148.3c-1.817-10.895,5.442-19.471,16.005-19.169l65.22,1.867c7.35,12.429,14.584,25.11,21.626,38.044
						c36.782,67.501,78.727,117.15,124.617,153.075c0.478,9.698-6.039,17.075-15.583,16.946l-161.031-2.195
						C1553.555,2336.723,1543.255,2327.595,1541.404,2316.499z"/>
					
						<linearGradient id="SVGID_00000146498860807286710960000001395829851137749927_" gradientUnits="userSpaceOnUse" x1="1763.7235" y1="2400.1736" x2="1569.5004" y2="2547.575">
						<stop  offset="0" style="stop-color:#AA80F9"/>
						<stop  offset="0.9964" style="stop-color:#6165D7"/>
					</linearGradient>
					<path style="opacity:0.2;fill:url(#SVGID_00000146498860807286710960000001395829851137749927_);" d="M1751.683,2388.857
						l30.039,169.861c1.982,11.205-4.326,20.354-14.805,20.396l-162.233,0.66c-10.748,0.043-20.893-9.148-22.79-20.52
						l-28.749-172.365c-1.862-11.163,5.443-20.103,16.104-19.98l160.58,1.831
						C1740.225,2368.858,1749.737,2377.854,1751.683,2388.857z"/>
					
						<linearGradient id="SVGID_00000132766925887658247900000011462400127125761170_" gradientUnits="userSpaceOnUse" x1="1808.069" y1="2643.2878" x2="1609.2297" y2="2794.1926">
						<stop  offset="0" style="stop-color:#AA80F9"/>
						<stop  offset="0.9964" style="stop-color:#6165D7"/>
					</linearGradient>
					<path style="opacity:0.2;fill:url(#SVGID_00000132766925887658247900000011462400127125761170_);" d="M1794.293,2629.8
						l30.781,174.057c2.031,11.483-4.307,21.019-14.881,21.254l-163.738,3.653c-10.85,0.241-21.114-9.021-23.059-20.68
						l-29.47-176.687c-1.908-11.442,5.443-20.76,16.204-20.827l162.058-1.039C1782.679,2609.465,1792.299,2618.527,1794.293,2629.8z
						"/>
					
						<linearGradient id="SVGID_00000176757850840389798270000005142635533054967703_" gradientUnits="userSpaceOnUse" x1="1985.7544" y1="2409.3999" x2="1806.6418" y2="2545.3335">
						<stop  offset="0" style="stop-color:#AA80F9"/>
						<stop  offset="0.9964" style="stop-color:#6165D7"/>
					</linearGradient>
					<path style="opacity:0.2;fill:url(#SVGID_00000176757850840389798270000005142635533054967703_);" d="M1819.686,2369.766
						c51.787,22.775,108.125,33.033,163.027,35.627l28.776,152.731c2.075,11.014-3.723,20.011-13.849,20.052l-155.798,0.668
						c-10.382,0.042-19.392-8.962-21.39-20.138l-30.292-169.424c-1.962-10.975,3.783-19.795,14.084-19.677L1819.686,2369.766z"/>
					
						<linearGradient id="SVGID_00000179623326395308354470000014176037246905235886_" gradientUnits="userSpaceOnUse" x1="2039.5151" y1="2642.8567" x2="1848.6541" y2="2787.7068">
						<stop  offset="0" style="stop-color:#AA80F9"/>
						<stop  offset="0.9964" style="stop-color:#6165D7"/>
					</linearGradient>
					<path style="opacity:0.2;fill:url(#SVGID_00000179623326395308354470000014176037246905235886_);" d="M2024.653,2627.992
						l32.227,171.048c2.126,11.283-3.693,20.655-13.906,20.882l-157.171,3.564c-10.475,0.233-19.587-8.832-21.635-20.285
						l-31.039-173.599c-2.01-11.244,4.112-20.427,14.505-20.492l155.962-1.022
						C2013.732,2608.024,2022.565,2616.912,2024.653,2627.992z"/>
					
						<linearGradient id="SVGID_00000093876981555080380080000009237712360242395265_" gradientUnits="userSpaceOnUse" x1="2221.6052" y1="2416.5503" x2="2040.662" y2="2553.8733">
						<stop  offset="0" style="stop-color:#AA80F9"/>
						<stop  offset="0.9964" style="stop-color:#6165D7"/>
					</linearGradient>
					<path style="opacity:0.2;fill:url(#SVGID_00000093876981555080380080000009237712360242395265_);" d="M2201.801,2390.456
						c0.339,0.947,1.811,1.965,2.008,2.951l32.804,164.237c2.163,10.831-4.669,19.633-14.459,19.673l-152.49,0.585
						c-10.032,0.041-20.747-8.871-22.837-19.857l-28.892-151.916C2080.486,2406.072,2140.09,2398.897,2201.801,2390.456z"/>
					
						<linearGradient id="SVGID_00000106133140511628272350000009093727640831917500_" gradientUnits="userSpaceOnUse" x1="2264.4658" y1="2641.1438" x2="2077.719" y2="2782.8713">
						<stop  offset="0" style="stop-color:#AA80F9"/>
						<stop  offset="0.9964" style="stop-color:#6165D7"/>
					</linearGradient>
					<path style="opacity:0.2;fill:url(#SVGID_00000106133140511628272350000009093727640831917500_);" d="M2250.336,2626.346
						l33.587,168.157c2.215,11.091-4.649,20.245-14.521,20.464l-153.78,3.368c-10.119,0.225-20.957-8.761-23.097-20.014
						l-32.444-170.592c-2.102-11.051,4.898-20.035,14.941-20.099l152.701-0.924
						C2237.523,2606.646,2248.16,2615.451,2250.336,2626.346z"/>
					
						<linearGradient id="SVGID_00000110467728973943596310000001213726892727020697_" gradientUnits="userSpaceOnUse" x1="2430.0085" y1="2411.4402" x2="2255.1768" y2="2544.125">
						<stop  offset="0" style="stop-color:#AA80F9"/>
						<stop  offset="0.9964" style="stop-color:#6165D7"/>
					</linearGradient>
					<path style="opacity:0.2;fill:url(#SVGID_00000110467728973943596310000001213726892727020697_);" d="M2414.726,2395.465
						l33.99,161.541c2.241,10.651-2.784,19.354-12.253,19.393l-146.562,0.595c-9.7,0.039-19.282-8.695-21.457-19.497l-32.98-163.804
						c-0.578-2.87-0.228-5.601,0.358-8.048c24.784-3.531,49.744-7.041,74.522-10.255l84.103,0.952
						C2403.851,2376.448,2412.524,2384.997,2414.726,2395.465z"/>
					
						<linearGradient id="SVGID_00000085211332486088663110000015750863541832960899_" gradientUnits="userSpaceOnUse" x1="2478.7476" y1="2641.179" x2="2299.9958" y2="2776.8389">
						<stop  offset="0" style="stop-color:#AA80F9"/>
						<stop  offset="0.9964" style="stop-color:#6165D7"/>
					</linearGradient>
					<path style="opacity:0.2;fill:url(#SVGID_00000085211332486088663110000015750863541832960899_);" d="M2462.932,2624.566
						l34.788,165.332c2.294,10.903-2.738,19.957-12.282,20.169l-147.739,3.292c-9.78,0.218-19.468-8.581-21.694-19.642
						l-33.766-167.704c-2.188-10.865,4.273-19.705,13.984-19.766l146.124-0.944
						C2451.826,2605.244,2460.678,2613.853,2462.932,2624.566z"/>
					
						<linearGradient id="SVGID_00000014605554719137775090000003594383084112379022_" gradientUnits="userSpaceOnUse" x1="2638.6611" y1="2412.6536" x2="2469.6326" y2="2540.9341">
						<stop  offset="0" style="stop-color:#AA80F9"/>
						<stop  offset="0.9964" style="stop-color:#6165D7"/>
					</linearGradient>
					<path style="opacity:0.2;fill:url(#SVGID_00000014605554719137775090000003594383084112379022_);" d="M2624.41,2397.6
						l35.134,158.96c2.316,10.48-3.76,19-12.926,19.037l-141.192,0.596c-9.386,0.038-18.135-8.534-20.39-19.16l-34.203-161.151
						c-2.217-10.444,2.602-18.841,11.925-18.734l141.005,1.614C2612.869,2378.866,2622.133,2387.297,2624.41,2397.6z"/>
					
						<linearGradient id="SVGID_00000054973457267131249200000005032152561446343556_" gradientUnits="userSpaceOnUse" x1="2690.0674" y1="2640.0745" x2="2517.2993" y2="2771.1929">
						<stop  offset="0" style="stop-color:#AA80F9"/>
						<stop  offset="0.9964" style="stop-color:#6165D7"/>
					</linearGradient>
					<path style="opacity:0.2;fill:url(#SVGID_00000054973457267131249200000005032152561446343556_);" d="M2674.236,2623.029
						l35.945,162.63c2.37,10.723-3.725,19.573-12.96,19.778l-142.268,3.21c-9.459,0.21-18.301-8.418-20.61-19.294l-35.003-164.924
						c-2.268-10.687,2.555-19.423,11.95-19.482l142.079-0.892C2662.544,2603.997,2671.906,2612.49,2674.236,2623.029z"/>
					
						<linearGradient id="SVGID_00000073713080821115087270000001671233962542010002_" gradientUnits="userSpaceOnUse" x1="2795.1655" y1="2451.8394" x2="2677.4612" y2="2541.1685">
						<stop  offset="0" style="stop-color:#AA80F9"/>
						<stop  offset="0.9964" style="stop-color:#6165D7"/>
					</linearGradient>
					<path style="opacity:0.2;fill:url(#SVGID_00000073713080821115087270000001671233962542010002_);" d="M2854.726,2530.319
						l5.945,25.718c2.384,10.313-3.219,18.701-12.095,18.737l-136.526,0.582c-9.086,0.037-17.498-8.392-19.826-18.846
						l-35.308-158.57c-0.531-2.382-1.676-4.706-1.375-6.801c61.124,21.667,120.26,57.934,176.911,116.005
						C2840.112,2515.004,2844.698,2522.619,2854.726,2530.319z"/>
					
						<linearGradient id="SVGID_00000131360710671143846190000009647793203746452889_" gradientUnits="userSpaceOnUse" x1="2892.2661" y1="2639.4023" x2="2725.4641" y2="2765.9932">
						<stop  offset="0" style="stop-color:#AA80F9"/>
						<stop  offset="0.9964" style="stop-color:#6165D7"/>
					</linearGradient>
					<path style="opacity:0.2;fill:url(#SVGID_00000131360710671143846190000009647793203746452889_);" d="M2875.789,2621.442
						l36.983,159.999c2.438,10.548-3.176,19.257-12.115,19.456l-137.514,3.113c-9.154,0.204-17.653-8.279-20.035-18.975
						l-36.122-162.222c-2.341-10.513,2.118-19.109,11.213-19.166l137.341-0.87
						C2864.425,2602.722,2873.392,2611.072,2875.789,2621.442z"/>
				</g>
			</g>
		</g>
		<g>
			<g>
				<g>
					<g>
						
							<linearGradient id="SVGID_00000078019774668705711290000018431245660752247743_" gradientUnits="userSpaceOnUse" x1="877.6125" y1="1191.077" x2="918.4966" y2="355.5">
							<stop  offset="0" style="stop-color:#311944"/>
							<stop  offset="1" style="stop-color:#A03976"/>
						</linearGradient>
						<path style="fill:url(#SVGID_00000078019774668705711290000018431245660752247743_);" d="M1301.332,955.439
							c0,225.477-181.04,408.69-405.724,412.14c-2.146,0.026-4.295,0.051-6.466,0.051c-227.649,0-412.19-184.542-412.19-412.191
							c0-211.372,159.116-385.591,364.099-409.406c15.766-1.84,31.814-2.785,48.091-2.785
							C1116.791,543.248,1301.332,727.789,1301.332,955.439z"/>
						
							<linearGradient id="SVGID_00000026155223490638335680000015196800714827366815_" gradientUnits="userSpaceOnUse" x1="877.6125" y1="1191.0767" x2="918.4965" y2="355.5002">
							<stop  offset="0" style="stop-color:#311944"/>
							<stop  offset="1" style="stop-color:#A03976"/>
						</linearGradient>
						
							<circle style="fill:url(#SVGID_00000026155223490638335680000015196800714827366815_);" cx="889.142" cy="955.439" r="363.26"/>
						<g>
							<defs>
								<circle id="SVGID_00000010995221440975423530000007607636184464729234_" cx="889.142" cy="955.439" r="324.432"/>
							</defs>
							
								<linearGradient id="SVGID_00000027583190317301013280000006067194529136322951_" gradientUnits="userSpaceOnUse" x1="877.6125" y1="1191.0769" x2="918.4963" y2="355.5034">
								<stop  offset="0" style="stop-color:#311944"/>
								<stop  offset="1" style="stop-color:#A03976"/>
							</linearGradient>
							
								<use xlink:href="#SVGID_00000010995221440975423530000007607636184464729234_"  style="overflow:visible;fill:url(#SVGID_00000027583190317301013280000006067194529136322951_);"/>
							<clipPath id="SVGID_00000088121937434032852290000016240665090977580432_">
								<use xlink:href="#SVGID_00000010995221440975423530000007607636184464729234_"  style="overflow:visible;"/>
							</clipPath>
						</g>
					</g>
					
						<linearGradient id="SVGID_00000132781478460952757020000008907550667712188036_" gradientUnits="userSpaceOnUse" x1="877.6125" y1="1189.1992" x2="918.4963" y2="353.6278">
						<stop  offset="0" style="stop-color:#311944"/>
						<stop  offset="1" style="stop-color:#A03976"/>
					</linearGradient>
					<polygon style="fill:url(#SVGID_00000132781478460952757020000008907550667712188036_);" points="1006.134,704.318 
						752.651,987.732 856.079,987.732 772.15,1201.957 1025.633,919.39 930.683,919.39 					"/>
				</g>
				
					<linearGradient id="SVGID_00000163032981990308369170000004854745300461060783_" gradientUnits="userSpaceOnUse" x1="685.043" y1="1181.655" x2="725.927" y2="346.08">
					<stop  offset="0" style="stop-color:#311944"/>
					<stop  offset="1" style="stop-color:#A03976"/>
				</linearGradient>
				<path style="opacity:0.2;fill:url(#SVGID_00000163032981990308369170000004854745300461060783_);" d="M811.743,1159.477
					c-5.647,61.582,3.247,113.071,33.271,156.562c12.826,18.603,29.513,35.723,50.594,51.54c-2.146,0.026-4.295,0.051-6.466,0.051
					c-227.649,0-412.19-184.542-412.19-412.191c0-211.372,159.116-385.591,364.099-409.406
					c13.136,13.057,25.835,28.415,36.874,46.327c32.298,52.23,50.848,126.077,27.008,227.624
					c-4.01,17.095-9.223,34.982-15.791,53.686c-14.668,41.83-28.031,80.951-39.427,117.543
					c-6.518,20.979-12.395,41.114-17.505,60.458C821.914,1090.715,814.732,1126.54,811.743,1159.477z"/>
			</g>
			<g>
				<g>
					<g>
						
							<linearGradient id="SVGID_00000120523608297645652500000000873393532691089073_" gradientUnits="userSpaceOnUse" x1="1401.9567" y1="-1056.374" x2="921.562" y2="1025.3389">
							<stop  offset="0" style="stop-color:#FCB148"/>
							<stop  offset="0.0521" style="stop-color:#FDBA46"/>
							<stop  offset="0.1424" style="stop-color:#FFC244"/>
							<stop  offset="0.3183" style="stop-color:#FFC444"/>
							<stop  offset="0.4849" style="stop-color:#FDB946"/>
							<stop  offset="0.7754" style="stop-color:#F99C4D"/>
							<stop  offset="0.8658" style="stop-color:#F8924F"/>
							<stop  offset="1" style="stop-color:#F8924F"/>
						</linearGradient>
						<path style="fill:url(#SVGID_00000120523608297645652500000000873393532691089073_);" d="M1349.882,955.439
							c0,225.477-181.04,408.69-405.724,412.14c-2.146,0.026-4.295,0.051-6.466,0.051c-227.649,0-412.19-184.542-412.19-412.191
							c0-211.372,159.116-385.591,364.099-409.406c15.766-1.84,31.814-2.785,48.091-2.785
							C1165.341,543.248,1349.882,727.789,1349.882,955.439z"/>
						
							<linearGradient id="SVGID_00000147190456592885962040000015440090381909437073_" gradientUnits="userSpaceOnUse" x1="939.91" y1="1040.4553" x2="955.2413" y2="1628.1682">
							<stop  offset="0.3183" style="stop-color:#FFC444"/>
							<stop  offset="0.5033" style="stop-color:#FDB946"/>
							<stop  offset="0.6054" style="stop-color:#FCB148"/>
							<stop  offset="0.6253" style="stop-color:#FBA94A"/>
							<stop  offset="0.6758" style="stop-color:#F99C4D"/>
							<stop  offset="0.7404" style="stop-color:#F8944E"/>
							<stop  offset="0.8658" style="stop-color:#F8924F"/>
							<stop  offset="1" style="stop-color:#F8924F"/>
						</linearGradient>
						
							<circle style="fill:url(#SVGID_00000147190456592885962040000015440090381909437073_);" cx="937.692" cy="955.439" r="363.26"/>
						<g>
							<defs>
								
									<ellipse id="SVGID_00000126296723618192595390000016366545781856509867_" transform="matrix(0.7071 -0.7071 0.7071 0.7071 -400.9535 942.8901)" cx="937.692" cy="955.439" rx="324.432" ry="324.432"/>
							</defs>
							<clipPath id="SVGID_00000012451870845181584280000005861025222558546307_">
								<use xlink:href="#SVGID_00000126296723618192595390000016366545781856509867_"  style="overflow:visible;"/>
							</clipPath>
						</g>
					</g>
					<polygon style="fill:#FFFFFF;" points="1054.684,704.318 801.202,987.732 904.629,987.732 820.7,1201.957 1074.183,919.39 
						979.233,919.39 					"/>
				</g>
				
					<linearGradient id="SVGID_00000108310148760769717620000003265747296720076167_" gradientUnits="userSpaceOnUse" x1="525.5023" y1="956.8313" x2="964.2891" y2="956.8313">
					<stop  offset="0" style="stop-color:#FCB148"/>
					<stop  offset="0.0521" style="stop-color:#FDBA46"/>
					<stop  offset="0.1424" style="stop-color:#FFC244"/>
					<stop  offset="0.3183" style="stop-color:#FFC444"/>
					<stop  offset="0.4849" style="stop-color:#FDB946"/>
					<stop  offset="0.7754" style="stop-color:#F99C4D"/>
					<stop  offset="0.8658" style="stop-color:#F8924F"/>
					<stop  offset="1" style="stop-color:#F8924F"/>
				</linearGradient>
				<path style="opacity:0.2;fill:url(#SVGID_00000108310148760769717620000003265747296720076167_);" d="M860.293,1159.477
					c-5.647,61.582,3.247,113.071,33.271,156.562c12.826,18.603,29.513,35.723,50.594,51.54c-2.146,0.026-4.295,0.051-6.466,0.051
					c-227.649,0-412.19-184.542-412.19-412.191c0-211.372,159.116-385.591,364.099-409.406
					c13.136,13.057,25.835,28.415,36.874,46.327c32.298,52.23,50.848,126.077,27.007,227.624
					c-4.01,17.095-9.223,34.982-15.791,53.686c-14.668,41.83-28.031,80.951-39.427,117.543
					c-6.518,20.979-12.395,41.114-17.505,60.458C870.464,1090.715,863.282,1126.54,860.293,1159.477z"/>
			</g>
		</g>
	</g>
</g>
</svg>
